<svg id="visual" viewBox="0 0 960 540" width="960" height="540" xmlns="http://www.w3.org/2000/svg" xmlns:xlink="http://www.w3.org/1999/xlink" version="1.1"><rect x="0" y="0" width="960" height="540" fill="#fff"></rect><path d="M0 411L22.8 403C45.7 395 91.3 379 137 383C182.7 387 228.3 411 274 418.2C319.7 425.3 365.3 415.7 411.2 399.7C457 383.7 503 361.3 548.8 353.5C594.7 345.7 640.3 352.3 686 365.2C731.7 378 777.3 397 823 405.7C868.7 414.3 914.3 412.7 937.2 411.8L960 411L960 541L937.2 541C914.3 541 868.7 541 823 541C777.3 541 731.7 541 686 541C640.3 541 594.7 541 548.8 541C503 541 457 541 411.2 541C365.3 541 319.7 541 274 541C228.3 541 182.7 541 137 541C91.3 541 45.7 541 22.8 541L0 541Z" fill="#B3C0A4" stroke-linecap="round" stroke-linejoin="miter"></path></svg>