<svg id="visual" viewBox="0 0 960 540" width="960" height="540" xmlns="http://www.w3.org/2000/svg" xmlns:xlink="http://www.w3.org/1999/xlink" version="1.1"><rect x="0" y="0" width="960" height="540" fill="#fff"></rect><path d="M0 396L22.8 398.2C45.7 400.3 91.3 404.7 137 398.3C182.7 392 228.3 375 274 373.5C319.7 372 365.3 386 411.2 388C457 390 503 380 548.8 373.7C594.7 367.3 640.3 364.7 686 365.8C731.7 367 777.3 372 823 381C868.7 390 914.3 403 937.2 409.5L960 416L960 541L937.2 541C914.3 541 868.7 541 823 541C777.3 541 731.7 541 686 541C640.3 541 594.7 541 548.8 541C503 541 457 541 411.2 541C365.3 541 319.7 541 274 541C228.3 541 182.7 541 137 541C91.3 541 45.7 541 22.8 541L0 541Z" fill="#dcc48e"></path><path d="M0 406L22.8 411.7C45.7 417.3 91.3 428.7 137 436.5C182.7 444.3 228.3 448.7 274 451.3C319.7 454 365.3 455 411.2 453C457 451 503 446 548.8 438.5C594.7 431 640.3 421 686 420.7C731.7 420.3 777.3 429.7 823 429.5C868.7 429.3 914.3 419.7 937.2 414.8L960 410L960 541L937.2 541C914.3 541 868.7 541 823 541C777.3 541 731.7 541 686 541C640.3 541 594.7 541 548.8 541C503 541 457 541 411.2 541C365.3 541 319.7 541 274 541C228.3 541 182.7 541 137 541C91.3 541 45.7 541 22.8 541L0 541Z" fill="#cbc494"></path><path d="M0 481L22.8 474.5C45.7 468 91.3 455 137 453.7C182.7 452.3 228.3 462.7 274 469.3C319.7 476 365.3 479 411.2 481.2C457 483.3 503 484.7 548.8 479.8C594.7 475 640.3 464 686 457.7C731.7 451.3 777.3 449.7 823 447.2C868.7 444.7 914.3 441.3 937.2 439.7L960 438L960 541L937.2 541C914.3 541 868.7 541 823 541C777.3 541 731.7 541 686 541C640.3 541 594.7 541 548.8 541C503 541 457 541 411.2 541C365.3 541 319.7 541 274 541C228.3 541 182.7 541 137 541C91.3 541 45.7 541 22.8 541L0 541Z" fill="#bdc39c"></path><path d="M0 487L22.8 486.5C45.7 486 91.3 485 137 489C182.7 493 228.3 502 274 507.2C319.7 512.3 365.3 513.7 411.2 511.7C457 509.7 503 504.3 548.8 499.5C594.7 494.7 640.3 490.3 686 486.3C731.7 482.3 777.3 478.7 823 482.5C868.7 486.3 914.3 497.7 937.2 503.3L960 509L960 541L937.2 541C914.3 541 868.7 541 823 541C777.3 541 731.7 541 686 541C640.3 541 594.7 541 548.8 541C503 541 457 541 411.2 541C365.3 541 319.7 541 274 541C228.3 541 182.7 541 137 541C91.3 541 45.7 541 22.8 541L0 541Z" fill="#b3c0a4"></path></svg>