<svg id="visual" viewBox="0 0 960 540" width="960" height="540" xmlns="http://www.w3.org/2000/svg" xmlns:xlink="http://www.w3.org/1999/xlink" version="1.1"><rect x="0" y="0" width="960" height="540" fill="#fff"></rect><path d="M0 136L22.8 142C45.7 148 91.3 160 137 159.2C182.7 158.3 228.3 144.7 274 143.3C319.7 142 365.3 153 411.2 156.7C457 160.3 503 156.7 548.8 158C594.7 159.3 640.3 165.7 686 167.7C731.7 169.7 777.3 167.3 823 162.7C868.7 158 914.3 151 937.2 147.5L960 144L960 0L937.2 0C914.3 0 868.7 0 823 0C777.3 0 731.7 0 686 0C640.3 0 594.7 0 548.8 0C503 0 457 0 411.2 0C365.3 0 319.7 0 274 0C228.3 0 182.7 0 137 0C91.3 0 45.7 0 22.8 0L0 0Z" fill="#dcc48e"></path><path d="M0 119L22.8 115C45.7 111 91.3 103 137 96.8C182.7 90.7 228.3 86.3 274 85C319.7 83.7 365.3 85.3 411.2 89.3C457 93.3 503 99.7 548.8 107.2C594.7 114.7 640.3 123.3 686 122.3C731.7 121.3 777.3 110.7 823 110.5C868.7 110.3 914.3 120.7 937.2 125.8L960 131L960 0L937.2 0C914.3 0 868.7 0 823 0C777.3 0 731.7 0 686 0C640.3 0 594.7 0 548.8 0C503 0 457 0 411.2 0C365.3 0 319.7 0 274 0C228.3 0 182.7 0 137 0C91.3 0 45.7 0 22.8 0L0 0Z" fill="#cbc494"></path><path d="M0 68L22.8 66.7C45.7 65.3 91.3 62.7 137 66.3C182.7 70 228.3 80 274 86.8C319.7 93.7 365.3 97.3 411.2 97.8C457 98.3 503 95.7 548.8 91.3C594.7 87 640.3 81 686 77.8C731.7 74.7 777.3 74.3 823 70.8C868.7 67.3 914.3 60.7 937.2 57.3L960 54L960 0L937.2 0C914.3 0 868.7 0 823 0C777.3 0 731.7 0 686 0C640.3 0 594.7 0 548.8 0C503 0 457 0 411.2 0C365.3 0 319.7 0 274 0C228.3 0 182.7 0 137 0C91.3 0 45.7 0 22.8 0L0 0Z" fill="#bdc39c"></path><path d="M0 21L22.8 23.2C45.7 25.3 91.3 29.7 137 35.3C182.7 41 228.3 48 274 52.5C319.7 57 365.3 59 411.2 59.8C457 60.7 503 60.3 548.8 60.3C594.7 60.3 640.3 60.7 686 58.7C731.7 56.7 777.3 52.3 823 52.3C868.7 52.3 914.3 56.7 937.2 58.8L960 61L960 0L937.2 0C914.3 0 868.7 0 823 0C777.3 0 731.7 0 686 0C640.3 0 594.7 0 548.8 0C503 0 457 0 411.2 0C365.3 0 319.7 0 274 0C228.3 0 182.7 0 137 0C91.3 0 45.7 0 22.8 0L0 0Z" fill="#b3c0a4"></path></svg>