<svg id="visual" viewBox="0 0 960 540" width="960" height="540" xmlns="http://www.w3.org/2000/svg" xmlns:xlink="http://www.w3.org/1999/xlink" version="1.1"><rect x="0" y="0" width="960" height="540" fill="#fff"></rect><path d="M0 111L22.8 119.2C45.7 127.3 91.3 143.7 137 154.2C182.7 164.7 228.3 169.3 274 167.7C319.7 166 365.3 158 411.2 140.8C457 123.7 503 97.3 548.8 97.2C594.7 97 640.3 123 686 142.7C731.7 162.3 777.3 175.7 823 168.2C868.7 160.7 914.3 132.3 937.2 118.2L960 104L960 0L937.2 0C914.3 0 868.7 0 823 0C777.3 0 731.7 0 686 0C640.3 0 594.7 0 548.8 0C503 0 457 0 411.2 0C365.3 0 319.7 0 274 0C228.3 0 182.7 0 137 0C91.3 0 45.7 0 22.8 0L0 0Z" fill="#B3C0A4" stroke-linecap="round" stroke-linejoin="miter"></path></svg>