<svg id="visual" viewBox="0 0 960 540" width="960" height="540" xmlns="http://www.w3.org/2000/svg" xmlns:xlink="http://www.w3.org/1999/xlink" version="1.1"><path d="M0 39L120 50L240 50L360 55L480 39L600 66L720 50L840 39L960 44L960 0L840 0L720 0L600 0L480 0L360 0L240 0L120 0L0 0Z" fill="#ffffff"></path><path d="M0 217L120 201L240 212L360 217L480 185L600 201L720 163L840 195L960 152L960 42L840 37L720 48L600 64L480 37L360 53L240 48L120 48L0 37Z" fill="#d9dfd1"></path><path d="M0 287L120 244L240 276L360 271L480 233L600 255L720 217L840 255L960 201L960 150L840 193L720 161L600 199L480 183L360 215L240 210L120 199L0 215Z" fill="#b3c0a4"></path><path d="M0 352L120 314L240 336L360 347L480 287L600 330L720 276L840 309L960 282L960 199L840 253L720 215L600 253L480 231L360 269L240 274L120 242L0 285Z" fill="#b3c0a4"></path><path d="M0 465L120 433L240 438L360 449L480 417L600 482L720 460L840 449L960 428L960 280L840 307L720 274L600 328L480 285L360 345L240 334L120 312L0 350Z" fill="#d9dfd1"></path><path d="M0 541L120 541L240 541L360 541L480 541L600 541L720 541L840 541L960 541L960 426L840 447L720 458L600 480L480 415L360 447L240 436L120 431L0 463Z" fill="#ffffff"></path></svg>